<svg width="20" height="20" viewBox="0 0 20 20" fill="none" xmlns="http://www.w3.org/2000/svg">
<path d="M11.6667 15.8333C14.8092 15.8333 16.3808 15.8333 17.3567 14.8567C18.3333 13.8808 18.3333 12.3092 18.3333 9.16667C18.3333 6.02417 18.3333 4.4525 17.3567 3.47667C16.3808 2.5 14.8092 2.5 11.6667 2.5H8.33332C5.19082 2.5 3.61916 2.5 2.64332 3.47667C1.66666 4.4525 1.66666 6.02417 1.66666 9.16667C1.66666 12.3092 1.66666 13.8808 2.64332 14.8567C3.18749 15.4017 3.91666 15.6425 4.99999 15.7483" stroke="black" stroke-width="2" stroke-linecap="round" stroke-linejoin="round"/>
<path d="M11.6667 15.8333C10.6367 15.8333 9.50165 16.25 8.46582 16.7875C6.80082 17.6517 5.96832 18.0842 5.55832 17.8083C5.14832 17.5333 5.22582 16.6792 5.38165 14.9717L5.41665 14.5833" stroke="black" stroke-width="2" stroke-linecap="round"/>
</svg>
