<svg width="20" height="20" viewBox="0 0 20 20" fill="none" xmlns="http://www.w3.org/2000/svg">
<path d="M18.125 8.22311V10.3125C18.1237 11.4724 17.6623 12.5845 16.8421 13.4047C16.0219 14.2249 14.9099 14.6862 13.75 14.6875H3.07136L4.8169 12.9419L3.93307 12.0581L2.18749 13.8037L2.01503 13.9761L0.703857 15.2873L3.59534 18.5403L4.52964 17.7098L2.95429 15.9375H13.75C16.8515 15.9375 19.375 13.4141 19.375 10.3125V6.97311L18.125 8.22311Z" fill="black"/>
<path d="M1.875 10C1.87631 8.84009 2.33767 7.72806 3.15786 6.90787C3.97805 6.08768 5.09008 5.62633 6.25 5.62501H16.9286L15.1831 7.3706L16.0669 8.25443L17.8125 6.50888L17.9733 6.3481L19.2961 5.02525L16.4046 1.77228L15.4704 2.60275L17.0457 4.37501H6.25C3.14844 4.37501 0.625 6.89845 0.625 10V13.3511L1.875 12.1011V10Z" fill="black"/>
</svg>
