<svg width="20" height="20" viewBox="0 0 20 20" fill="none" xmlns="http://www.w3.org/2000/svg">
<g clip-path="url(#clip0_8_4)">
<path d="M20 0C17.9774 0.139062 3.76724 1.49219 2.77388 11.2348C2.65317 12.2762 2.58481 13.3223 2.53989 14.3691L9.527 7.38906C9.77114 7.14492 10.1676 7.14492 10.4118 7.38906C10.6559 7.6332 10.6559 8.02891 10.4118 8.27305L0.275049 18.3996C-0.0913574 18.7656 -0.0913574 19.3594 0.275049 19.7254C0.641455 20.0914 1.2356 20.0914 1.60239 19.7254L3.83403 17.4961C5.47817 17.4906 7.12114 17.3973 8.75434 17.2086C10.8434 16.9961 12.5442 16.1746 13.9332 15H9.98989L15.7239 13.0906C16.1633 12.509 16.5586 11.891 16.9133 11.25H13.7438L17.9055 9.17148C19.5426 5.18984 19.9293 1.02578 20 0Z" fill="#FFFCFC"/>
</g>
<defs>
<clipPath id="clip0_8_4">
<rect width="20" height="20" fill="white"/>
</clipPath>
</defs>
</svg>
