<svg width="30" height="30" viewBox="0 0 30 30" fill="none" xmlns="http://www.w3.org/2000/svg">
<path d="M27.375 23.4417L27.0917 23.1917C26.2879 22.4755 25.5843 21.6542 25 20.75C24.3619 19.5021 23.9794 18.1393 23.875 16.7417V12.625C23.8805 10.4297 23.0842 8.30789 21.6356 6.6583C20.1871 5.00872 18.186 3.94487 16.0084 3.66666V2.59166C16.0084 2.2966 15.8911 2.01363 15.6825 1.805C15.4739 1.59637 15.1909 1.47916 14.8959 1.47916C14.6008 1.47916 14.3178 1.59637 14.1092 1.805C13.9006 2.01363 13.7834 2.2966 13.7834 2.59166V3.68332C11.6252 3.9816 9.64833 5.05187 8.21879 6.69591C6.78926 8.33995 6.00396 10.4464 6.00835 12.625V16.7417C5.90398 18.1393 5.5215 19.5021 4.88335 20.75C4.30909 21.6519 3.61685 22.4731 2.82502 23.1917L2.54169 23.4417V25.7917H27.375V23.4417Z" fill="#725DF4"/>
<path d="M12.7667 26.6667C12.8397 27.1949 13.1015 27.6788 13.5036 28.0291C13.9056 28.3794 14.4209 28.5724 14.9542 28.5724C15.4874 28.5724 16.0027 28.3794 16.4048 28.0291C16.8068 27.6788 17.0686 27.1949 17.1417 26.6667H12.7667Z" fill="#725DF4"/>
</svg>
