<svg width="30" height="30" viewBox="0 0 30 30" fill="none" xmlns="http://www.w3.org/2000/svg">
<path d="M25 6.25H21.7675L18.3837 2.86625C18.2679 2.74995 18.1301 2.65771 17.9785 2.59486C17.8268 2.532 17.6642 2.49976 17.5 2.5H12.5C12.3358 2.49976 12.1732 2.532 12.0215 2.59486C11.8699 2.65771 11.7321 2.74995 11.6163 2.86625L8.2325 6.25H5C3.62125 6.25 2.5 7.37125 2.5 8.75V22.5C2.5 23.8788 3.62125 25 5 25H25C26.3788 25 27.5 23.8788 27.5 22.5V8.75C27.5 7.37125 26.3788 6.25 25 6.25ZM15 21.25C11.6125 21.25 8.75 18.3875 8.75 15C8.75 11.6113 11.6125 8.75 15 8.75C18.3875 8.75 21.25 11.6113 21.25 15C21.25 18.3875 18.3875 21.25 15 21.25Z" fill="#FDFDFD"/>
<path d="M16.25 11.25H13.75V13.75H11.25V16.25H13.75V18.75H16.25V16.25H18.75V13.75H16.25V11.25Z" fill="#FAFAFA"/>
</svg>
