<svg width="20" height="20" viewBox="0 0 20 20" fill="none" xmlns="http://www.w3.org/2000/svg">
<path d="M10.001 7.79999C9.71195 7.79999 9.42574 7.85692 9.1587 7.96753C8.89166 8.07814 8.64903 8.24026 8.44465 8.44465C8.24026 8.64903 8.07814 8.89166 7.96753 9.1587C7.85692 9.42574 7.79999 9.71195 7.79999 10.001C7.79999 10.29 7.85692 10.5762 7.96753 10.8433C8.07814 11.1103 8.24026 11.3529 8.44465 11.5573C8.64903 11.7617 8.89166 11.9238 9.1587 12.0344C9.42574 12.1451 9.71195 12.202 10.001 12.202C10.5847 12.2019 11.1445 11.9698 11.5572 11.557C11.9699 11.1441 12.2016 10.5842 12.2015 10.0005C12.2014 9.41675 11.9693 8.85697 11.5565 8.44429C11.1436 8.03162 10.5837 7.79986 9.99999 7.79999H10.001ZM10.001 5.19999C10.2899 5.19986 10.5759 5.14282 10.8428 5.03214C11.1097 4.92146 11.3521 4.7593 11.5563 4.55492C11.7605 4.35053 11.9225 4.10793 12.0329 3.84097C12.1433 3.574 12.2001 3.2879 12.2 2.99899C12.1999 2.71008 12.1428 2.42403 12.0321 2.15716C11.9215 1.89029 11.7593 1.64784 11.5549 1.44365C11.3505 1.23945 11.1079 1.07751 10.841 0.96707C10.574 0.856631 10.2879 0.799857 9.99899 0.799988C9.41551 0.800253 8.85604 1.03229 8.44365 1.44506C8.03125 1.85783 7.79972 2.41751 7.79999 3.00099C7.80025 3.58446 8.03229 4.14394 8.44506 4.55633C8.85783 4.96872 9.41751 5.20025 10.001 5.19999V5.19999ZM10.001 14.8C9.41725 14.8 8.85741 15.0319 8.44465 15.4446C8.03188 15.8574 7.79999 16.4172 7.79999 17.001C7.79999 17.5847 8.03188 18.1446 8.44465 18.5573C8.85741 18.9701 9.41725 19.202 10.001 19.202C10.5847 19.202 11.1446 18.9701 11.5573 18.5573C11.9701 18.1446 12.202 17.5847 12.202 17.001C12.202 16.4172 11.9701 15.8574 11.5573 15.4446C11.1446 15.0319 10.5847 14.8 10.001 14.8V14.8Z" fill="#575353"/>
</svg>
